<?xml version="1.0" encoding="UTF-8"?>
<svg version="1.1" xmlns="http://www.w3.org/2000/svg" width="1536" height="1024">
<path d="M0 0 C506.88 0 1013.76 0 1536 0 C1536 337.92 1536 675.84 1536 1024 C1029.12 1024 522.24 1024 0 1024 C0 686.08 0 348.16 0 0 Z " fill="#F9F9F9" transform="translate(0,0)"/>
<path d="M0 0 C105.33984375 0 105.33984375 0 124 17 C136.95592094 30.66778473 141.55462772 46.90284785 141.34936523 65.36865234 C140.83918372 81.49038832 135.73751924 96.0801796 124.38671875 107.81640625 C113.863074 117.44442166 101.98086197 122.58786001 87.8203125 124.1171875 C87.04535431 124.20169159 86.27039612 124.28619568 85.47195435 124.3732605 C76.27587889 125.28755067 67.10604795 125.21735134 57.875 125.125 C49.026875 125.063125 49.026875 125.063125 40 125 C40 147.77 40 170.54 40 194 C26.8 194 13.6 194 0 194 C0 129.98 0 65.96 0 0 Z " fill="#0F2130" transform="translate(1048,392)"/>
<path d="M0 0 C13.2 0 26.4 0 40 0 C40.02505615 3.57231445 40.0501123 7.14462891 40.07592773 10.82519531 C40.15957197 22.65563753 40.24818941 34.48603898 40.33933926 46.31642532 C40.3944584 53.48599973 40.44790361 60.6555791 40.49731445 67.82519531 C40.5404192 74.07915323 40.58676018 80.33307766 40.63687855 86.58698344 C40.66326973 89.89388835 40.68763121 93.20078736 40.70907402 96.50772858 C40.73337203 100.21255548 40.76338924 103.91729672 40.79467773 107.62207031 C40.80331093 109.24048828 40.80331093 109.24048828 40.81211853 110.89160156 C40.96054301 126.45143436 41.75556484 140.23256786 53 152 C53 152.66 53 153.32 53 154 C53.9590625 154.37125 53.9590625 154.37125 54.9375 154.75 C58 156 58 156 59.84375 156.953125 C71.55573987 162.80911994 84.47527321 162.96638266 97 160 C100.40448856 158.60725468 103.54801407 157.06121269 106.7421875 155.2421875 C109 154 109 154 111 154 C111.226875 153.484375 111.45375 152.96875 111.6875 152.4375 C112.81857512 150.33693192 114.00219945 148.63923597 115.4375 146.75 C126.08356539 131.84550846 123.33689986 109.59766827 123.4140625 92.28515625 C123.43280124 89.61615535 123.45228413 86.94717014 123.4727478 84.27818298 C123.51919668 78.01008929 123.55610264 71.74197873 123.58942068 65.47380298 C123.6278844 58.32722525 123.67722939 51.18073491 123.72740483 44.03423131 C123.8302194 29.35621759 123.91820536 14.67814729 124 0 C137.53 0 151.06 0 165 0 C165.06799374 16.2651482 165.12314168 32.53017312 165.15543652 48.79542446 C165.17083706 56.34942692 165.19179441 63.90333412 165.22631836 71.45727539 C165.25643135 78.04928775 165.27562435 84.64123104 165.28226548 91.23331028 C165.28614111 94.71652957 165.29510274 98.19955148 165.31719017 101.68270683 C165.46576437 126.09019332 164.82452931 152.31075353 148 172 C147.34 172 146.68 172 146 172 C145.74992188 172.58136719 145.49984375 173.16273438 145.2421875 173.76171875 C139.38081639 184.32324593 125.30827451 190.58016567 114.375 194.17578125 C104.48975897 196.58988525 94.8486152 197.34690603 84.7097168 197.31567383 C82.56833118 197.31250862 80.42832616 197.33609122 78.28710938 197.36132812 C69.51963257 197.40184117 61.46139511 196.44054223 53 194 C52.29270752 193.80124268 51.58541504 193.60248535 50.85668945 193.39770508 C31.31371536 187.55943684 17.12493363 174.81128798 7.43359375 157.14453125 C0.78444267 143.3897202 -0.160448 129.2361687 -0.11352539 114.20654297 C-0.11367142 112.96637924 -0.11381744 111.72621552 -0.1139679 110.44847107 C-0.11339445 107.07931137 -0.1084116 103.71021448 -0.10139394 100.34106588 C-0.09510289 96.80836265 -0.09455208 93.27565841 -0.09336853 89.74295044 C-0.09027207 83.06736569 -0.08208158 76.39179751 -0.07201904 69.71622002 C-0.06080534 62.11033102 -0.05533425 54.5044412 -0.05032361 46.89854598 C-0.0398974 31.26568612 -0.02157308 15.63284905 0 0 Z " fill="#0E212F" transform="translate(662,392)"/>
<path d="M0 0 C14.52 0 29.04 0 44 0 C46.02125 6.208125 48.0425 12.41625 50.125 18.8125 C50.81255371 20.92406494 51.50010742 23.03562988 52.20849609 25.21118164 C55.00189501 33.79006519 57.79513713 42.36899878 60.58560181 50.94883728 C61.97343513 55.21598894 63.361701 59.48299983 64.75 63.75 C65.02704773 64.60167755 65.30409546 65.4533551 65.58953857 66.33084106 C69.11023125 77.15209488 72.64284764 87.96938286 76.18801117 98.78264618 C76.81029147 100.6807634 77.43239824 102.57893751 78.05450439 104.47711182 C80.0799052 110.65684335 82.10664535 116.83612949 84.13574219 123.01464844 C84.87700763 125.27537275 85.61822109 127.53611412 86.359375 129.796875 C86.86778931 131.34242065 86.86778931 131.34242065 87.38647461 132.91918945 C89.0251658 137.92228059 90.59975809 142.92478689 92 148 C93.81416169 145.27875746 94.56285301 143.53182783 95.453125 140.4609375 C95.87609863 139.03418701 95.87609863 139.03418701 96.30761719 137.57861328 C96.61860352 136.5214209 96.92958984 135.46422852 97.25 134.375 C100.8135309 122.52871327 104.72548407 110.82166184 108.75 99.125 C109.97284376 95.56907485 111.1955973 92.01311879 112.41796875 88.45703125 C112.72087326 87.57608292 113.02377777 86.69513458 113.33586121 85.78749084 C116.30168033 77.14796548 119.18883232 68.48302617 122.0625 59.8125 C126.91188706 45.18503552 131.87740163 30.59918256 136.90063477 16.03051758 C137.16770233 15.25404373 137.4347699 14.47756989 137.70993042 13.67756653 C138.20883151 12.22718879 138.70908964 10.77727683 139.21096802 9.32792664 C140.27605424 6.22910517 141.20414433 3.18342269 142 0 C156.19 0 170.38 0 185 0 C181.62320473 11.25598423 181.62320473 11.25598423 179.7578125 16.4921875 C179.33806152 17.67353271 178.91831055 18.85487793 178.48583984 20.07202148 C178.03236489 21.33973048 177.57874741 22.6073885 177.125 23.875 C176.64393407 25.22400089 176.16297987 26.57304162 175.68212891 27.92211914 C174.12616141 32.28311586 172.56353854 36.64171305 171 41 C170.7306665 41.75130188 170.46133301 42.50260376 170.18383789 43.27667236 C164.6322794 58.76097253 159.07792783 74.24211656 153.25 89.625 C150.34735083 97.2913363 147.58951452 104.99350422 144.9375 112.75 C140.72741932 125.05268426 136.31510662 137.27881008 131.875 149.5 C131.53733612 150.43162964 131.19967224 151.36325928 130.85177612 152.32312012 C127.10637626 162.65150606 123.30259886 172.94926733 119.2638855 183.16711426 C118.9952066 183.84866577 118.72652771 184.53021729 118.44970703 185.23242188 C118.21704132 185.8182605 117.98437561 186.40409912 117.74465942 187.00769043 C116.7584616 189.64622732 115.89075603 192.32773191 115 195 C99.82 195 84.64 195 69 195 C64.32112194 182.69907866 59.74141609 170.3955956 55.5 157.9375 C51.13295681 145.13088584 46.55737039 132.40491961 41.9375 119.6875 C35.92336095 103.13071538 29.98656266 86.5489175 24.125 69.9375 C18.6178354 54.3335291 13.039074 38.76122963 7.296875 23.2421875 C6.53055904 21.16171271 5.76496051 19.08097355 5 17 C4.7728833 16.38612427 4.5457666 15.77224854 4.31176758 15.13977051 C3.60395699 13.22255223 2.90288573 11.30298152 2.203125 9.3828125 C1.78192383 8.23441895 1.36072266 7.08602539 0.92675781 5.90283203 C0 3 0 3 0 0 Z " fill="#0F2130" transform="translate(845,392)"/>
<path d="M0 0 C0.17015625 1.25554687 0.3403125 2.51109375 0.515625 3.8046875 C2.14726402 15.28578483 3.83446586 25.51620481 11 35 C11.39574219 35.55171875 11.79148437 36.1034375 12.19921875 36.671875 C19.9744338 46.74178103 32.60820258 52.33940515 45 54 C59.84514385 54.93456111 74.1860642 52.16249579 86.0234375 42.75390625 C96.34324754 33.59660446 102.17276204 22.79066569 104.125 9.125 C104.37636719 7.39636719 104.37636719 7.39636719 104.6328125 5.6328125 C104.75398437 4.76398438 104.87515625 3.89515625 105 3 C110.27680888 4.5303582 114.80095289 6.88827579 119.5625 9.5625 C120.7539563 10.23067749 120.7539563 10.23067749 121.96948242 10.91235352 C132.94523074 17.1533785 142.80774004 24.43290299 152.3203125 32.71484375 C154.96886532 35.06433785 154.96886532 35.06433785 158 37 C158 37.66 158 38.32 158 39 C158.66 39 159.32 39 160 39 C162.54779843 41.46516713 164.73683539 44.27442062 167 47 C167.96873047 48.13888672 167.96873047 48.13888672 168.95703125 49.30078125 C175.56837613 57.26829944 182.03024064 65.98081184 185 76 C181.88898176 74.56088952 179.30246919 72.8015115 176.5625 70.75 C163.53760214 61.56945526 145.24352191 54.55794602 129.06054688 57.33251953 C116.52079741 59.80325099 107.69303184 63.6033147 97.35180664 71.15258789 C93.7373688 73.79098725 90.07861562 76.23817733 86.25 78.5625 C82.43927101 80.92816485 79.2165751 83.50270986 75.9375 86.5625 C65.57326918 96.15840456 54.54117925 100.74791268 40.328125 100.34375 C27.4842207 99.01714956 16.2990097 92.79636052 7 84 C7 83.34 7 82.68 7 82 C5.89398438 81.59394531 5.89398438 81.59394531 4.765625 81.1796875 C2.12560887 80.05357893 0.07658111 78.78807465 -2.25 77.125 C-13.99945539 69.08900125 -26.78187968 67.15600736 -40.75 69.5625 C-51.46136162 72.54593534 -60.31970025 79.20052319 -68 87 C-68.68578125 87.68707031 -69.3715625 88.37414062 -70.078125 89.08203125 C-80.6866877 100.33796687 -87.37774586 114.19189562 -94 128 C-94.33 128 -94.66 128 -95 128 C-95.66727806 96.53257158 -80.00862419 66.2977131 -60 43 C-58.90171875 41.71609375 -58.90171875 41.71609375 -57.78125 40.40625 C-52.6189877 34.5169085 -47.1800436 28.83655586 -41 24 C-40.34 24 -39.68 24 -39 24 C-39 23.34 -39 22.68 -39 22 C-30.98629654 15.06922944 -10.88772241 0 0 0 Z " fill="#0A6CB0" transform="translate(409,366)"/>
<path d="M0 0 C12.55824349 -0.41773783 23.07366805 6.39781988 32.77734375 13.7734375 C34 15 34 15 34 17 C34.55945313 17.1959375 35.11890625 17.391875 35.6953125 17.59375 C38.95870326 19.58497148 40.79080404 22.37790888 42.875 25.5 C43.31191162 26.15419922 43.74882324 26.80839844 44.19897461 27.48242188 C53.26243824 41.75875948 55.17928492 57.03053812 55.1875 73.625 C55.19974609 74.9346875 55.21199219 76.244375 55.22460938 77.59375 C55.22654297 78.85445312 55.22847656 80.11515625 55.23046875 81.4140625 C55.23457764 82.5582666 55.23868652 83.7024707 55.24291992 84.88134766 C55.00056337 87.99276731 54.32430462 90.19393071 53 93 C52.3915625 92.79503906 51.783125 92.59007812 51.15625 92.37890625 C36.4214659 87.85012702 23.08054213 87.67614577 9 94.44140625 C-2.50438171 101.07240404 -10.4147818 112.13900476 -14.10546875 124.7890625 C-17.80004035 140.37400008 -13.9240229 154.87116211 -5.78125 168.34375 C-2.99350134 172.50091905 -0.11328256 176.1178625 3.75 179.3125 C4.36359375 179.82425781 4.9771875 180.33601562 5.609375 180.86328125 C6.06828125 181.23839844 6.5271875 181.61351562 7 182 C3.62592158 186.98894483 -0.50526504 189.51090921 -5.625 192.4375 C-6.46168213 192.91687012 -7.29836426 193.39624023 -8.16040039 193.89013672 C-19.99089859 200.44770803 -32.36655859 204.91260614 -46 205 C-47.25296875 205.03738281 -48.5059375 205.07476563 -49.796875 205.11328125 C-63.47728493 205.42746932 -76.01411706 203.44367423 -89 199 C-85.82324592 195.49461619 -82.40668731 192.76530095 -78.5625 190 C-77.59699219 189.30390625 -76.63148438 188.6078125 -75.63671875 187.890625 C-74.76660156 187.26671875 -73.89648438 186.6428125 -73 186 C-61.24768121 177.53833047 -52.80192906 163.10774415 -50 149 C-49.78373392 146.33768415 -49.63553283 143.75228046 -49.578125 141.08984375 C-49.52193456 139.58915107 -49.46460534 138.08850068 -49.40625 136.58789062 C-49.32446699 134.27386967 -49.25053187 131.96061404 -49.19726562 129.64575195 C-48.79033932 113.28977023 -45.22193093 100.69054263 -33 89 C-32.1853125 88.17113281 -31.370625 87.34226562 -30.53125 86.48828125 C-24.20606784 80.27047101 -17.11823895 75.02066324 -9.875 69.9375 C0.48360646 62.60284327 7.8685063 56.39448109 12 44 C12.99492359 29.77748569 10.03900073 19.82915684 2.64257812 7.68115234 C0 3.30141629 0 3.30141629 0 0 Z " fill="#0B8D79" transform="translate(553,441)"/>
<path d="M0 0 C-1.46803493 4.64877727 -3.23912989 9.13026938 -5.09765625 13.6328125 C-9.13798047 24.23210461 -6.64144104 35.70591543 -2.88671875 46.07421875 C3.63890098 60.49218092 16.26700134 71.54692506 27.40136719 82.43261719 C28.78100168 83.78528265 30.14762533 85.15119492 31.51171875 86.51953125 C33.42333172 88.42514229 35.35344344 90.29978659 37.3046875 92.1640625 C47.57141815 102.05872751 58.80170993 114.02137413 60 129 C60.06316406 129.76570312 60.12632812 130.53140625 60.19140625 131.3203125 C60.62310717 140.87343618 57.84929671 149.68987453 54.1875 158.4375 C52.7709326 162.6872022 52.71990709 164.70792377 54 169 C62.70877121 185.33986839 79.78449513 195.10394076 96.93017578 200.62109375 C106.5733774 203.53189 115.94227352 204.71098487 126 205 C125 207 125 207 122.83984375 207.78125 C84.18033829 217.355071 45.02604493 210.21538715 11 190 C-2.35158152 181.54863644 -2.35158152 181.54863644 -6 176 C-5.154375 175.41734375 -4.30875 174.8346875 -3.4375 174.234375 C4.57103724 168.52665257 10.34205408 162.84666388 15 154 C15.45246094 153.15824219 15.90492188 152.31648437 16.37109375 151.44921875 C21.35995161 139.79704209 21.32533221 122.37352649 17.25268555 110.40966797 C12.4743337 98.68309967 3.87388572 88.33906984 -7.87890625 83.17431641 C-21.33573033 77.91733303 -32.45611892 77.6291506 -46 83 C-47.6902327 83.95963076 -49.36582708 84.94773736 -51 86 C-51.66187648 60.72140996 -42.41270143 33.45249474 -26.03125 14.11328125 C-19.29002595 7.09981546 -10.17530189 0 0 0 Z " fill="#0576BD" transform="translate(378,453)"/>
<path d="M0 0 C6.30043641 5.05307729 11.88685932 12.1800593 13.05151367 20.37036133 C13.18720672 22.65055629 13.208701 24.90357417 13.1875 27.1875 C13.20748047 27.94740234 13.22746094 28.70730469 13.24804688 29.49023438 C13.24308938 35.29546215 11.70039447 39.30235277 8.75 44.25 C8.39268799 44.87801514 8.03537598 45.50603027 7.66723633 46.15307617 C3.33856093 53.48474991 -4.84727251 57.75916898 -12.75 60.25 C-22.98453731 62.59723719 -31.56617839 60.27995126 -40.375 54.96875 C-47.0154151 50.44119425 -51.83131233 43.9418626 -54.25 36.25 C-55.71247244 25.26157845 -54.80584176 15.4745915 -48.25 6.25 C-36.14541097 -9.31304303 -15.83445302 -10.93473548 0 0 Z " fill="#1861A1" transform="translate(482.25,343.75)"/>
<path d="M0 0 C43.8686747 0 43.8686747 0 51.48046875 6.43359375 C51.98191406 6.95050781 52.48335937 7.46742188 53 8 C53.78375 8.78375 54.5675 9.5675 55.375 10.375 C60.30963589 18.34633489 62.33058685 27.81159014 60.33984375 37.0703125 C57.75788109 44.74302745 54.33782403 50.33660137 46.93357849 54.197052 C40.60360184 56.82567148 34.01985127 57.29009212 27.24609375 57.1953125 C26.54746216 57.19329834 25.84883057 57.19128418 25.12902832 57.18920898 C22.56511698 57.17889031 20.00130058 57.1509701 17.4375 57.125 C8.8059375 57.063125 8.8059375 57.063125 0 57 C0 38.19 0 19.38 0 0 Z " fill="#F9F9F9" transform="translate(1088,426)"/>
<path d="M0 0 C8.04930304 4.75458 14.02716223 11.27552741 16.953125 20.2421875 C18.97834591 31.2505665 17.23188388 41.33189332 11.22265625 50.69921875 C2.97433751 58.40960366 -5.92957208 61.92502338 -17.13671875 61.6328125 C-24.68700046 60.89419798 -30.62810118 58.09608531 -35.65234375 52.38671875 C-40.33816583 46.13535704 -42.87457477 40.15225589 -43.65234375 32.38671875 C-43.73484375 31.57332031 -43.81734375 30.75992188 -43.90234375 29.921875 C-44.35508518 20.96608363 -41.62891776 13.32561667 -35.90234375 6.44921875 C-26.50652791 -3.36809163 -12.33710715 -5.71719599 0 0 Z " fill="#0B8D78" transform="translate(597.65234375,550.61328125)"/>
<path d="M0 0 C2.75 2.4375 2.75 2.4375 5 5 C6.0209375 6.11375 6.0209375 6.11375 7.0625 7.25 C13.63208785 16.5745763 14.26186148 25.83821241 13 37 C12.16710229 40.45325006 10.95630982 43.05330834 9 46 C8.38125 47.05574219 8.38125 47.05574219 7.75 48.1328125 C4.04663405 53.83515439 -0.48634264 57.05308037 -7 59 C-16.42219872 60.32097823 -25.29143956 58.82552835 -33.25 53.4921875 C-39.55623883 48.35642482 -45.40893093 41.11445223 -47 33 C-47.86544152 23.71002615 -46.76039806 16.20798492 -41.234375 8.5546875 C-30.80325267 -3.88873796 -14.52941627 -10.12656286 0 0 Z " fill="#0575BC" transform="translate(368,554)"/>
<path d="M0 0 C0.66 0 1.32 0 2 0 C1.32853826 3.19988463 0.18987247 5.85291006 -1.28515625 8.765625 C-1.73310547 9.65507812 -2.18105469 10.54453125 -2.64257812 11.4609375 C-3.11115234 12.38132812 -3.57972656 13.30171875 -4.0625 14.25 C-4.53494141 15.18585938 -5.00738281 16.12171875 -5.49414062 17.0859375 C-6.65917478 19.39246976 -7.82790603 21.69704947 -9 24 C-9.33 24 -9.66 24 -10 24 C-10.24794402 17.4294834 -9.32388229 11.43028541 -8 5 C-7.34 5.66 -6.68 6.32 -6 7 C-5.38125 6.175 -4.7625 5.35 -4.125 4.5 C-3.42375 3.675 -2.7225 2.85 -2 2 C-1.34 2 -0.68 2 0 2 C0 1.34 0 0.68 0 0 Z " fill="#15579A" transform="translate(324,470)"/>
<path d="M0 0 C-0.66 1.65 -1.32 3.3 -2 5 C-2.33 4.34 -2.66 3.68 -3 3 C-5.31 3.33 -7.62 3.66 -10 4 C-10.020625 4.598125 -10.04125 5.19625 -10.0625 5.8125 C-11 8 -11 8 -14.5625 9.75 C-16.2640625 10.36875 -16.2640625 10.36875 -18 11 C-18.66 10.34 -19.32 9.68 -20 9 C-14.15028995 4.72680755 -7.55699378 0 0 0 Z " fill="#086BB3" transform="translate(378,453)"/>
<path d="M0 0 C3.63 0.33 7.26 0.66 11 1 C7.25 4.875 7.25 4.875 5 6 C5.66 8.31 6.32 10.62 7 13 C3.70759125 10.20145256 1.96437054 6.79326725 0 3 C0 2.01 0 1.02 0 0 Z " fill="#0B826D" transform="translate(553,441)"/>
<path d="M0 0 C0.99 0.66 1.98 1.32 3 2 C2.01 2.33 1.02 2.66 0 3 C-0.433125 3.86625 -0.433125 3.86625 -0.875 4.75 C-2.89052126 8.78104252 -5.75116613 11.41721086 -9.8125 13.3125 C-10.8953125 13.6528125 -10.8953125 13.6528125 -12 14 C-10.41332422 10.09714233 -7.86649519 7.66479018 -4.875 4.75 C-3.96492188 3.85796875 -3.05484375 2.9659375 -2.1171875 2.046875 C-1.41851562 1.37140625 -0.71984375 0.6959375 0 0 Z " fill="#145FA3" transform="translate(363,394)"/>
<path d="M0 0 C-0.89460937 0.04898437 -1.78921875 0.09796875 -2.7109375 0.1484375 C-9.3482944 0.55884976 -15.65923696 1.13771809 -22.109375 2.79296875 C-23.04523437 2.89544922 -23.04523437 2.89544922 -24 3 C-24.66 2.34 -25.32 1.68 -26 1 C-5.7565445 -3.83769634 -5.7565445 -3.83769634 0 0 Z " fill="#E0EEF5" transform="translate(552,424)"/>
<path d="M0 0 C0.33 0.66 0.66 1.32 1 2 C-0.15081738 4.80257879 -1.5149806 7.46725007 -2.87109375 10.17578125 C-4.02743956 13.06864636 -4.14695751 14.92963766 -4 18 C-4.8125 20.25 -4.8125 20.25 -6 22 C-6.99 22.33 -7.98 22.66 -9 23 C-7.67296379 14.44798884 -4.01880768 7.55406899 0 0 Z " fill="#0D4F96" transform="translate(329,439)"/>
<path d="M0 0 C0.66 0.33 1.32 0.66 2 1 C0.88121617 2.17262904 -0.24523051 3.33795138 -1.375 4.5 C-2.00148438 5.1496875 -2.62796875 5.799375 -3.2734375 6.46875 C-5 8 -5 8 -7 8 C-7.33 8.66 -7.66 9.32 -8 10 C-5.03 10.495 -5.03 10.495 -2 11 C-2 11.33 -2 11.66 -2 12 C-9.75 11.25 -9.75 11.25 -12 9 C-8.04 6.03 -4.08 3.06 0 0 Z " fill="#0A7C68" transform="translate(476,630)"/>
<path d="M0 0 C0.66 0 1.32 0 2 0 C1.35550393 3.01217112 0.34977818 5.51655836 -1.0625 8.25 C-1.42472656 8.95640625 -1.78695313 9.6628125 -2.16015625 10.390625 C-2.57587891 11.18726563 -2.57587891 11.18726563 -3 12 C-3.66 11.34 -4.32 10.68 -5 10 C-5.99 10.495 -5.99 10.495 -7 11 C-6.42676569 7.13066838 -4.61046448 4.84777943 -2 2 C-1.34 2 -0.68 2 0 2 C0 1.34 0 0.68 0 0 Z " fill="#1360A1" transform="translate(324,470)"/>
<path d="M0 0 C6.6 0.33 13.2 0.66 20 1 C19.67 1.66 19.34 2.32 19 3 C16.35139573 3.59355614 13.70802678 3.74209269 11 4 C11 3.67 11 3.34 11 3 C7.37 2.34 3.74 1.68 0 1 C0 0.67 0 0.34 0 0 Z " fill="#1961AB" transform="translate(484,657)"/>
<path d="M0 0 C-1.61949042 1.50594681 -3.24575974 3.00460668 -4.875 4.5 C-6.23238281 5.75296875 -6.23238281 5.75296875 -7.6171875 7.03125 C-10 9 -10 9 -12 9 C-12.33 8.01 -12.66 7.02 -13 6 C-12.195625 5.731875 -11.39125 5.46375 -10.5625 5.1875 C-9.716875 4.795625 -8.87125 4.40375 -8 4 C-7.67 3.01 -7.34 2.02 -7 1 C-2.55696203 -1.27848101 -2.55696203 -1.27848101 0 0 Z " fill="#0D569E" transform="translate(352,443)"/>
<path d="M0 0 C0.66 0 1.32 0 2 0 C1.38722388 2.96175123 0.74627478 4.38058783 -1 7 C-3.625 7.6875 -3.625 7.6875 -6 8 C-2.25 2.25 -2.25 2.25 0 0 Z " fill="#1066B2" transform="translate(355,464)"/>
<path d="M0 0 C0.99 0.33 1.98 0.66 3 1 C0.45335415 5.81033104 -1.99027798 9.32442148 -6 13 C-6 9 -6 9 -3.5625 6.5 C-2.716875 5.675 -1.87125 4.85 -1 4 C-0.13880866 1.82653432 -0.13880866 1.82653432 0 0 Z " fill="#0D539A" transform="translate(333,456)"/>
<path d="M0 0 C-0.66 1.65 -1.32 3.3 -2 5 C-2.33 4.34 -2.66 3.68 -3 3 C-8.445 4.485 -8.445 4.485 -14 6 C-11.13382391 3.13382391 -10.09936362 2.45268488 -6.4375 1.3125 C-5.65246094 1.06113281 -4.86742187 0.80976563 -4.05859375 0.55078125 C-2 0 -2 0 0 0 Z " fill="#0956A5" transform="translate(378,453)"/>
<path d="M0 0 C0.33 0 0.66 0 1 0 C1.33 1.65 1.66 3.3 2 5 C2.66 4.67 3.32 4.34 4 4 C4 5.32 4 6.64 4 8 C2.68 8 1.36 8 0 8 C-0.33 8.99 -0.66 9.98 -1 11 C-0.67 7.37 -0.34 3.74 0 0 Z " fill="#084D95" transform="translate(316,475)"/>
<path d="M0 0 C2 2 2 2 2 5 C2.66 5 3.32 5 4 5 C5.35439668 7.70879335 5.06501451 10.00933268 5 13 C1.42988974 9.267612 0.89086558 4.9050011 0 0 Z " fill="#091118" transform="translate(871,464)"/>
<path d="M0 0 C1 2 1 2 0.3125 4.875 C-1.03712351 8.08838932 -2.39272995 9.74036595 -5 12 C-5.33 11.34 -5.66 10.68 -6 10 C-4.78515625 7.6171875 -4.78515625 7.6171875 -3.0625 4.875 C-2.21365234 3.50988281 -2.21365234 3.50988281 -1.34765625 2.1171875 C-0.90292969 1.41851562 -0.45820313 0.71984375 0 0 Z " fill="#105398" transform="translate(336,426)"/>
<path d="M0 0 C0.66 0.33 1.32 0.66 2 1 C1.375 2.9375 1.375 2.9375 0 5 C-3.125 5.75 -3.125 5.75 -6 6 C-6 5.34 -6 4.68 -6 4 C-4.03852126 2.61061923 -2.03833424 1.2739589 0 0 Z " fill="#0A7964" transform="translate(549,507)"/>
</svg>
